<svg width="18" height="20" viewBox="0 0 18 20" fill="none" xmlns="http://www.w3.org/2000/svg">
<path fill-rule="evenodd" clip-rule="evenodd" d="M9.00152 12.6653C4.85666 12.6653 1.50516 15.9506 1.46934 19.9997L0 19.9868C0.0431076 15.1147 4.06893 11.1997 9.00152 11.1997C13.9345 11.1997 17.9569 15.1151 18 19.9868L16.5307 19.9997C16.4948 15.9502 13.146 12.6653 9.00152 12.6653Z" fill="black"/>
<path fill-rule="evenodd" clip-rule="evenodd" d="M9.00042 1.45455C6.54461 1.45455 4.55378 3.48961 4.55378 6C4.55378 8.51039 6.54461 10.5455 9.00042 10.5455C11.4562 10.5455 13.4471 8.51039 13.4471 6C13.4471 3.48961 11.4562 1.45455 9.00042 1.45455ZM3.13086 6C3.13086 2.68629 5.75875 0 9.00042 0C12.2421 0 14.87 2.68629 14.87 6C14.87 9.31371 12.2421 12 9.00042 12C5.75875 12 3.13086 9.31371 3.13086 6Z" fill="black"/>
</svg>
